<mxfile host="app.diagrams.net" modified="2024-03-10T20:15:04.192Z" agent="Mozilla/5.0 (X11; Linux x86_64; rv:123.0) Gecko/20100101 Firefox/123.0" version="24.0.2" etag="09ogq4IPF_Lfll_KKMKr" type="github">
  <diagram name="Page-1" id="oaYXW2iBB0WjS0PlCJyY">
    <mxGraphModel>
      <root>
        <mxCell id="0" />
        <mxCell id="1" parent="0" />
      </root>
    </mxGraphModel>
  </diagram>
</mxfile>
